<?xml version="1.0" encoding="UTF-8"?>
<!DOCTYPE svg PUBLIC "-//W3C//DTD SVG 1.1//EN" "http://www.w3.org/Graphics/SVG/1.1/DTD/svg11.dtd">
<!-- Creator: CorelDRAW X7 -->
<svg xmlns="http://www.w3.org/2000/svg" xml:space="preserve" width="210mm" height="297mm" version="1.1" shape-rendering="geometricPrecision" text-rendering="geometricPrecision" image-rendering="optimizeQuality" fill-rule="evenodd" clip-rule="evenodd"
viewBox="0 0 21000 29700"
 xmlns:xlink="http://www.w3.org/1999/xlink">
 <defs>
   <clipPath id="id0">
    <path d="M17675 14403c-31,104 -66,207 -109,314 -197,487 -368,796 -650,1032 -296,246 -637,243 -930,-3 -1012,-851 -1377,-3774 -774,-5919 41,-145 79,-248 121,-371 368,-1069 1153,-1635 1782,-845 145,183 365,546 459,855 24,79 38,100 62,171 43,131 90,307 133,493l559 -468 547 -458c-38,-204 -79,-397 -123,-574 -269,-1081 -632,-2020 -1110,-2578 -972,-1135 -2038,-882 -2878,790l-214 468c-43,93 -23,74 -67,181 -177,424 -315,1023 -435,1560 -122,547 -212,1327 -257,2024 -105,1608 59,3169 326,4354 33,146 59,275 98,404 72,242 209,715 293,917 24,58 44,111 71,172 132,305 65,188 208,456 148,278 223,435 410,680 516,677 1125,971 1789,637 832,-418 1541,-1879 1886,-3700l-409 -202 -788 -390zm-10418 2922c-343,634 -706,1102 -1092,1408 -384,307 -805,459 -1263,459 -443,0 -848,-166 -1219,-499 -369,-334 -689,-815 -960,-1445 -284,-664 -500,-1442 -648,-2328 -150,-889 -224,-1842 -224,-2863 0,-2153 292,-3881 875,-5191 583,-1310 1355,-1964 2318,-1964 351,0 698,101 1041,307 342,202 692,518 1049,946l0 3032c-373,-468 -727,-819 -1066,-1048 -337,-232 -653,-347 -948,-347 -569,0 -1013,378 -1337,1136 -322,757 -484,1798 -484,3129 0,1297 154,2328 462,3096 308,764 722,1148 1242,1148 138,0 277,-37 412,-107 137,-75 273,-179 410,-317l0 -1738 -773 0 0 -2587 2205 0 0 5773zm212 1624l0 -13804 1241 0 1803 5558 1811 -5558 1242 0 0 13804 -1383 0 0 -8543 -1670 5046 -1654 -5046 0 8543 -1390 0zm9037 -4502c-14,-101 -13,-288 2,-388 49,-29 69,-18 118,-3 -2,100 -23,149 -46,225 -23,75 -37,136 -74,166zm-277 -407c44,-10 85,-23 121,24l7 378c-44,-22 -57,-94 -82,-169 -17,-52 -56,-144 -46,-233zm496 383c8,-76 66,-302 80,-333 29,-65 140,-63 183,-13 -18,132 -199,322 -263,346zm-867 -398c56,-5 154,-39 190,40 11,24 69,272 74,332 -73,-5 -251,-230 -264,-372zm647 -845c29,-52 260,-25 300,15 0,97 -48,403 -71,448 -25,51 -77,34 -116,34 -87,1 -154,69 -113,-497zm405 497c-6,-122 42,-392 62,-486 58,-22 272,-42 308,26 22,55 -18,174 -31,229 -71,284 -87,286 -339,231zm-625 -8c-72,0 -146,43 -180,-93 -25,-103 -55,-296 -48,-406 59,-52 225,-43 295,-1 12,86 11,228 10,340 -2,165 -15,159 -77,160zm-617 -60c-15,-30 -96,-294 -97,-400 0,-47 1,-32 6,-56 33,-22 252,-31 291,-6 45,29 85,423 76,492 -44,46 -242,38 -276,-30zm833 -1069c0,-316 3,-279 137,-269 77,6 169,-24 238,30 16,142 3,389 -28,487l-210 17c-119,0 -138,50 -137,-240l0 -25zm852 249c-33,47 -226,26 -282,24 -77,-4 -66,-33 -56,-217 6,-105 7,-201 21,-293 55,-25 304,-29 349,6 28,52 8,408 -32,480zm-1654 -10c-142,0 -229,96 -234,-389 -1,-149 16,-148 72,-146 296,10 297,-63 307,214 5,105 12,192 4,311l-149 10zm384 -521c77,1 210,-10 275,28 11,125 17,353 -2,477 -43,60 -298,41 -344,-3 -16,-59 -28,-267 -30,-347 -4,-188 29,-156 101,-155zm420 -460c-27,-497 47,-402 196,-396 63,3 147,-33 169,78 16,88 20,336 11,436 -47,23 -332,18 -362,-17l-14 -101zm-511 93c-20,-121 3,-391 22,-484 65,-36 294,-50 342,18 23,86 21,363 -1,471 -43,43 -321,38 -363,-5zm1034 -137c-4,-106 -12,-216 -5,-329 66,-23 279,-23 341,10 20,75 64,385 27,474 -28,64 -232,28 -288,25 -69,-3 -67,-9 -75,-180zm-1556 115c-2,-116 3,-228 13,-330 15,-148 19,-159 84,-161 65,-2 235,-13 284,31 14,95 -8,404 -20,488 -67,37 -311,34 -361,-28zm586 -846c-3,-122 21,-232 39,-337 32,-190 36,-173 211,-156 43,4 53,-6 62,76 0,4 16,343 -17,413 -31,62 -248,36 -295,4zm457 13c-5,-62 -13,-377 -2,-445 16,-98 119,-57 158,-57 87,1 82,4 111,169 19,110 46,238 33,333 -58,57 -234,30 -300,0zm689 -451c24,42 101,341 99,461 -42,23 -260,32 -299,6 -52,-35 -86,-457 -86,-482 47,-46 248,-48 286,15zm-1310 442c-59,21 -141,8 -203,5 -61,-2 -143,45 -107,-139 89,-451 141,-406 376,-351 4,114 -43,406 -66,485zm332 -849c2,-142 94,-411 143,-447 4,143 12,307 -6,454l-137 -7zm421 7c-21,17 -119,61 -134,-56 -12,-95 -2,-312 7,-388 40,26 137,294 127,444zm-782 -24c18,-155 222,-393 274,-381 0,68 -57,293 -77,349 -29,80 -146,84 -197,32zm1159 32l-101 11c-95,0 -91,-31 -133,-190 -18,-72 -94,-271 -19,-230 36,20 116,125 145,168 55,83 102,131 108,241zm-693 -880c-587,148 -1075,1452 -1006,3056 27,604 108,1040 244,1489 44,145 91,236 138,354 188,471 546,745 843,667 325,-86 597,-526 737,-973 81,-261 152,-513 204,-886 50,-355 82,-847 57,-1196 -56,-790 -134,-1294 -378,-1850 -209,-480 -540,-737 -839,-661z"/>
   </clipPath>
    <clipPath id="id1">
     <path d="M17675 14403c-31,104 -66,207 -109,314 -197,487 -368,796 -650,1032 -296,246 -637,243 -930,-3 -1012,-851 -1377,-3774 -774,-5919 41,-145 79,-248 121,-371 368,-1069 1153,-1635 1782,-845 145,183 365,546 459,855 24,79 38,100 62,171 43,131 90,307 133,493l559 -468 547 -458c-38,-204 -79,-397 -123,-574 -269,-1081 -632,-2020 -1110,-2578 -972,-1135 -2038,-882 -2878,790l-214 468c-43,93 -23,74 -67,181 -177,424 -315,1023 -435,1560 -122,547 -212,1327 -257,2024 -105,1608 59,3169 326,4354 33,146 59,275 98,404 72,242 209,715 293,917 24,58 44,111 71,172 132,305 65,188 208,456 148,278 223,435 410,680 516,677 1125,971 1789,637 832,-418 1541,-1879 1886,-3700l-409 -202 -788 -390zm-10418 2922c-343,634 -706,1102 -1092,1408 -384,307 -805,459 -1263,459 -443,0 -848,-166 -1219,-499 -369,-334 -689,-815 -960,-1445 -284,-664 -500,-1442 -648,-2328 -150,-889 -224,-1842 -224,-2863 0,-2153 292,-3881 875,-5191 583,-1310 1355,-1964 2318,-1964 351,0 698,101 1041,307 342,202 692,518 1049,946l0 3032c-373,-468 -727,-819 -1066,-1048 -337,-232 -653,-347 -948,-347 -569,0 -1013,378 -1337,1136 -322,757 -484,1798 -484,3129 0,1297 154,2328 462,3096 308,764 722,1148 1242,1148 138,0 277,-37 412,-107 137,-75 273,-179 410,-317l0 -1738 -773 0 0 -2587 2205 0 0 5773zm212 1624l0 -13804 1241 0 1803 5558 1811 -5558 1242 0 0 13804 -1383 0 0 -8543 -1670 5046 -1654 -5046 0 8543 -1390 0zm9037 -4502c-14,-101 -13,-288 2,-388 49,-29 69,-18 118,-3 -2,100 -23,149 -46,225 -23,75 -37,136 -74,166zm-277 -407c44,-10 85,-23 121,24l7 378c-44,-22 -57,-94 -82,-169 -17,-52 -56,-144 -46,-233zm496 383c8,-76 66,-302 80,-333 29,-65 140,-63 183,-13 -18,132 -199,322 -263,346zm-867 -398c56,-5 154,-39 190,40 11,24 69,272 74,332 -73,-5 -251,-230 -264,-372zm647 -845c29,-52 260,-25 300,15 0,97 -48,403 -71,448 -25,51 -77,34 -116,34 -87,1 -154,69 -113,-497zm405 497c-6,-122 42,-392 62,-486 58,-22 272,-42 308,26 22,55 -18,174 -31,229 -71,284 -87,286 -339,231zm-625 -8c-72,0 -146,43 -180,-93 -25,-103 -55,-296 -48,-406 59,-52 225,-43 295,-1 12,86 11,228 10,340 -2,165 -15,159 -77,160zm-617 -60c-15,-30 -96,-294 -97,-400 0,-47 1,-32 6,-56 33,-22 252,-31 291,-6 45,29 85,423 76,492 -44,46 -242,38 -276,-30zm833 -1069c0,-316 3,-279 137,-269 77,6 169,-24 238,30 16,142 3,389 -28,487l-210 17c-119,0 -138,50 -137,-240l0 -25zm852 249c-33,47 -226,26 -282,24 -77,-4 -66,-33 -56,-217 6,-105 7,-201 21,-293 55,-25 304,-29 349,6 28,52 8,408 -32,480zm-1654 -10c-142,0 -229,96 -234,-389 -1,-149 16,-148 72,-146 296,10 297,-63 307,214 5,105 12,192 4,311l-149 10zm384 -521c77,1 210,-10 275,28 11,125 17,353 -2,477 -43,60 -298,41 -344,-3 -16,-59 -28,-267 -30,-347 -4,-188 29,-156 101,-155zm420 -460c-27,-497 47,-402 196,-396 63,3 147,-33 169,78 16,88 20,336 11,436 -47,23 -332,18 -362,-17l-14 -101zm-511 93c-20,-121 3,-391 22,-484 65,-36 294,-50 342,18 23,86 21,363 -1,471 -43,43 -321,38 -363,-5zm1034 -137c-4,-106 -12,-216 -5,-329 66,-23 279,-23 341,10 20,75 64,385 27,474 -28,64 -232,28 -288,25 -69,-3 -67,-9 -75,-180zm-1556 115c-2,-116 3,-228 13,-330 15,-148 19,-159 84,-161 65,-2 235,-13 284,31 14,95 -8,404 -20,488 -67,37 -311,34 -361,-28zm586 -846c-3,-122 21,-232 39,-337 32,-190 36,-173 211,-156 43,4 53,-6 62,76 0,4 16,343 -17,413 -31,62 -248,36 -295,4zm457 13c-5,-62 -13,-377 -2,-445 16,-98 119,-57 158,-57 87,1 82,4 111,169 19,110 46,238 33,333 -58,57 -234,30 -300,0zm689 -451c24,42 101,341 99,461 -42,23 -260,32 -299,6 -52,-35 -86,-457 -86,-482 47,-46 248,-48 286,15zm-1310 442c-59,21 -141,8 -203,5 -61,-2 -143,45 -107,-139 89,-451 141,-406 376,-351 4,114 -43,406 -66,485zm332 -849c2,-142 94,-411 143,-447 4,143 12,307 -6,454l-137 -7zm421 7c-21,17 -119,61 -134,-56 -12,-95 -2,-312 7,-388 40,26 137,294 127,444zm-782 -24c18,-155 222,-393 274,-381 0,68 -57,293 -77,349 -29,80 -146,84 -197,32zm1159 32l-101 11c-95,0 -91,-31 -133,-190 -18,-72 -94,-271 -19,-230 36,20 116,125 145,168 55,83 102,131 108,241zm-693 -880c-587,148 -1075,1452 -1006,3056 27,604 108,1040 244,1489 44,145 91,236 138,354 188,471 546,745 843,667 325,-86 597,-526 737,-973 81,-261 152,-513 204,-886 50,-355 82,-847 57,-1196 -56,-790 -134,-1294 -378,-1850 -209,-480 -540,-737 -839,-661z"/>
    </clipPath>
    <clipPath id="id2">
     <path d="M17675 14403c-31,104 -66,207 -109,314 -197,487 -368,796 -650,1032 -296,246 -637,243 -930,-3 -1012,-851 -1377,-3774 -774,-5919 41,-145 79,-248 121,-371 368,-1069 1153,-1635 1782,-845 145,183 365,546 459,855 24,79 38,100 62,171 43,131 90,307 133,493l559 -468 547 -458c-38,-204 -79,-397 -123,-574 -269,-1081 -632,-2020 -1110,-2578 -972,-1135 -2038,-882 -2878,790l-214 468c-43,93 -23,74 -67,181 -177,424 -315,1023 -435,1560 -122,547 -212,1327 -257,2024 -105,1608 59,3169 326,4354 33,146 59,275 98,404 72,242 209,715 293,917 24,58 44,111 71,172 132,305 65,188 208,456 148,278 223,435 410,680 516,677 1125,971 1789,637 832,-418 1541,-1879 1886,-3700l-409 -202 -788 -390zm-10418 2922c-343,634 -706,1102 -1092,1408 -384,307 -805,459 -1263,459 -443,0 -848,-166 -1219,-499 -369,-334 -689,-815 -960,-1445 -284,-664 -500,-1442 -648,-2328 -150,-889 -224,-1842 -224,-2863 0,-2153 292,-3881 875,-5191 583,-1310 1355,-1964 2318,-1964 351,0 698,101 1041,307 342,202 692,518 1049,946l0 3032c-373,-468 -727,-819 -1066,-1048 -337,-232 -653,-347 -948,-347 -569,0 -1013,378 -1337,1136 -322,757 -484,1798 -484,3129 0,1297 154,2328 462,3096 308,764 722,1148 1242,1148 138,0 277,-37 412,-107 137,-75 273,-179 410,-317l0 -1738 -773 0 0 -2587 2205 0 0 5773zm212 1624l0 -13804 1241 0 1803 5558 1811 -5558 1242 0 0 13804 -1383 0 0 -8543 -1670 5046 -1654 -5046 0 8543 -1390 0zm9037 -4502c-14,-101 -13,-288 2,-388 49,-29 69,-18 118,-3 -2,100 -23,149 -46,225 -23,75 -37,136 -74,166zm-277 -407c44,-10 85,-23 121,24l7 378c-44,-22 -57,-94 -82,-169 -17,-52 -56,-144 -46,-233zm496 383c8,-76 66,-302 80,-333 29,-65 140,-63 183,-13 -18,132 -199,322 -263,346zm-867 -398c56,-5 154,-39 190,40 11,24 69,272 74,332 -73,-5 -251,-230 -264,-372zm647 -845c29,-52 260,-25 300,15 0,97 -48,403 -71,448 -25,51 -77,34 -116,34 -87,1 -154,69 -113,-497zm405 497c-6,-122 42,-392 62,-486 58,-22 272,-42 308,26 22,55 -18,174 -31,229 -71,284 -87,286 -339,231zm-625 -8c-72,0 -146,43 -180,-93 -25,-103 -55,-296 -48,-406 59,-52 225,-43 295,-1 12,86 11,228 10,340 -2,165 -15,159 -77,160zm-617 -60c-15,-30 -96,-294 -97,-400 0,-47 1,-32 6,-56 33,-22 252,-31 291,-6 45,29 85,423 76,492 -44,46 -242,38 -276,-30zm833 -1069c0,-316 3,-279 137,-269 77,6 169,-24 238,30 16,142 3,389 -28,487l-210 17c-119,0 -138,50 -137,-240l0 -25zm852 249c-33,47 -226,26 -282,24 -77,-4 -66,-33 -56,-217 6,-105 7,-201 21,-293 55,-25 304,-29 349,6 28,52 8,408 -32,480zm-1654 -10c-142,0 -229,96 -234,-389 -1,-149 16,-148 72,-146 296,10 297,-63 307,214 5,105 12,192 4,311l-149 10zm384 -521c77,1 210,-10 275,28 11,125 17,353 -2,477 -43,60 -298,41 -344,-3 -16,-59 -28,-267 -30,-347 -4,-188 29,-156 101,-155zm420 -460c-27,-497 47,-402 196,-396 63,3 147,-33 169,78 16,88 20,336 11,436 -47,23 -332,18 -362,-17l-14 -101zm-511 93c-20,-121 3,-391 22,-484 65,-36 294,-50 342,18 23,86 21,363 -1,471 -43,43 -321,38 -363,-5zm1034 -137c-4,-106 -12,-216 -5,-329 66,-23 279,-23 341,10 20,75 64,385 27,474 -28,64 -232,28 -288,25 -69,-3 -67,-9 -75,-180zm-1556 115c-2,-116 3,-228 13,-330 15,-148 19,-159 84,-161 65,-2 235,-13 284,31 14,95 -8,404 -20,488 -67,37 -311,34 -361,-28zm586 -846c-3,-122 21,-232 39,-337 32,-190 36,-173 211,-156 43,4 53,-6 62,76 0,4 16,343 -17,413 -31,62 -248,36 -295,4zm457 13c-5,-62 -13,-377 -2,-445 16,-98 119,-57 158,-57 87,1 82,4 111,169 19,110 46,238 33,333 -58,57 -234,30 -300,0zm689 -451c24,42 101,341 99,461 -42,23 -260,32 -299,6 -52,-35 -86,-457 -86,-482 47,-46 248,-48 286,15zm-1310 442c-59,21 -141,8 -203,5 -61,-2 -143,45 -107,-139 89,-451 141,-406 376,-351 4,114 -43,406 -66,485zm332 -849c2,-142 94,-411 143,-447 4,143 12,307 -6,454l-137 -7zm421 7c-21,17 -119,61 -134,-56 -12,-95 -2,-312 7,-388 40,26 137,294 127,444zm-782 -24c18,-155 222,-393 274,-381 0,68 -57,293 -77,349 -29,80 -146,84 -197,32zm1159 32l-101 11c-95,0 -91,-31 -133,-190 -18,-72 -94,-271 -19,-230 36,20 116,125 145,168 55,83 102,131 108,241zm-693 -880c-587,148 -1075,1452 -1006,3056 27,604 108,1040 244,1489 44,145 91,236 138,354 188,471 546,745 843,667 325,-86 597,-526 737,-973 81,-261 152,-513 204,-886 50,-355 82,-847 57,-1196 -56,-790 -134,-1294 -378,-1850 -209,-480 -540,-737 -839,-661z"/>
    </clipPath>
 </defs>
 <g id="Layer_x0020_1">
  <metadata id="CorelCorpID_0Corel-Layer"/>
  <path fill="gold" d="M17675 14403c-31,104 -66,207 -109,314 -197,487 -368,796 -650,1032 -296,246 -637,243 -930,-3 -1012,-851 -1377,-3774 -774,-5919 41,-145 79,-248 121,-371 368,-1069 1153,-1635 1782,-845 145,183 365,546 459,855 24,79 38,100 62,171 43,131 90,307 133,493l559 -468 547 -458c-38,-204 -79,-397 -123,-574 -269,-1081 -632,-2020 -1110,-2578 -972,-1135 -2038,-882 -2878,790l-214 468c-43,93 -23,74 -67,181 -177,424 -315,1023 -435,1560 -122,547 -212,1327 -257,2024 -105,1608 59,3169 326,4354 33,146 59,275 98,404 72,242 209,715 293,917 24,58 44,111 71,172 132,305 65,188 208,456 148,278 223,435 410,680 516,677 1125,971 1789,637 832,-418 1541,-1879 1886,-3700l-409 -202 -788 -390zm-10418 2922c-343,634 -706,1102 -1092,1408 -384,307 -805,459 -1263,459 -443,0 -848,-166 -1219,-499 -369,-334 -689,-815 -960,-1445 -284,-664 -500,-1442 -648,-2328 -150,-889 -224,-1842 -224,-2863 0,-2153 292,-3881 875,-5191 583,-1310 1355,-1964 2318,-1964 351,0 698,101 1041,307 342,202 692,518 1049,946l0 3032c-373,-468 -727,-819 -1066,-1048 -337,-232 -653,-347 -948,-347 -569,0 -1013,378 -1337,1136 -322,757 -484,1798 -484,3129 0,1297 154,2328 462,3096 308,764 722,1148 1242,1148 138,0 277,-37 412,-107 137,-75 273,-179 410,-317l0 -1738 -773 0 0 -2587 2205 0 0 5773zm212 1624l0 -13804 1241 0 1803 5558 1811 -5558 1242 0 0 13804 -1383 0 0 -8543 -1670 5046 -1654 -5046 0 8543 -1390 0zm9037 -4502c-14,-101 -13,-288 2,-388 49,-29 69,-18 118,-3 -2,100 -23,149 -46,225 -23,75 -37,136 -74,166zm-277 -407c44,-10 85,-23 121,24l7 378c-44,-22 -57,-94 -82,-169 -17,-52 -56,-144 -46,-233zm496 383c8,-76 66,-302 80,-333 29,-65 140,-63 183,-13 -18,132 -199,322 -263,346zm-867 -398c56,-5 154,-39 190,40 11,24 69,272 74,332 -73,-5 -251,-230 -264,-372zm647 -845c29,-52 260,-25 300,15 0,97 -48,403 -71,448 -25,51 -77,34 -116,34 -87,1 -154,69 -113,-497zm405 497c-6,-122 42,-392 62,-486 58,-22 272,-42 308,26 22,55 -18,174 -31,229 -71,284 -87,286 -339,231zm-625 -8c-72,0 -146,43 -180,-93 -25,-103 -55,-296 -48,-406 59,-52 225,-43 295,-1 12,86 11,228 10,340 -2,165 -15,159 -77,160zm-617 -60c-15,-30 -96,-294 -97,-400 0,-47 1,-32 6,-56 33,-22 252,-31 291,-6 45,29 85,423 76,492 -44,46 -242,38 -276,-30zm833 -1069c0,-316 3,-279 137,-269 77,6 169,-24 238,30 16,142 3,389 -28,487l-210 17c-119,0 -138,50 -137,-240l0 -25zm852 249c-33,47 -226,26 -282,24 -77,-4 -66,-33 -56,-217 6,-105 7,-201 21,-293 55,-25 304,-29 349,6 28,52 8,408 -32,480zm-1654 -10c-142,0 -229,96 -234,-389 -1,-149 16,-148 72,-146 296,10 297,-63 307,214 5,105 12,192 4,311l-149 10zm384 -521c77,1 210,-10 275,28 11,125 17,353 -2,477 -43,60 -298,41 -344,-3 -16,-59 -28,-267 -30,-347 -4,-188 29,-156 101,-155zm420 -460c-27,-497 47,-402 196,-396 63,3 147,-33 169,78 16,88 20,336 11,436 -47,23 -332,18 -362,-17l-14 -101zm-511 93c-20,-121 3,-391 22,-484 65,-36 294,-50 342,18 23,86 21,363 -1,471 -43,43 -321,38 -363,-5zm1034 -137c-4,-106 -12,-216 -5,-329 66,-23 279,-23 341,10 20,75 64,385 27,474 -28,64 -232,28 -288,25 -69,-3 -67,-9 -75,-180zm-1556 115c-2,-116 3,-228 13,-330 15,-148 19,-159 84,-161 65,-2 235,-13 284,31 14,95 -8,404 -20,488 -67,37 -311,34 -361,-28zm586 -846c-3,-122 21,-232 39,-337 32,-190 36,-173 211,-156 43,4 53,-6 62,76 0,4 16,343 -17,413 -31,62 -248,36 -295,4zm457 13c-5,-62 -13,-377 -2,-445 16,-98 119,-57 158,-57 87,1 82,4 111,169 19,110 46,238 33,333 -58,57 -234,30 -300,0zm689 -451c24,42 101,341 99,461 -42,23 -260,32 -299,6 -52,-35 -86,-457 -86,-482 47,-46 248,-48 286,15zm-1310 442c-59,21 -141,8 -203,5 -61,-2 -143,45 -107,-139 89,-451 141,-406 376,-351 4,114 -43,406 -66,485zm332 -849c2,-142 94,-411 143,-447 4,143 12,307 -6,454l-137 -7zm421 7c-21,17 -119,61 -134,-56 -12,-95 -2,-312 7,-388 40,26 137,294 127,444zm-782 -24c18,-155 222,-393 274,-381 0,68 -57,293 -77,349 -29,80 -146,84 -197,32zm1159 32l-101 11c-95,0 -91,-31 -133,-190 -18,-72 -94,-271 -19,-230 36,20 116,125 145,168 55,83 102,131 108,241zm-693 -880c-587,148 -1075,1452 -1006,3056 27,604 108,1040 244,1489 44,145 91,236 138,354 188,471 546,745 843,667 325,-86 597,-526 737,-973 81,-261 152,-513 204,-886 50,-355 82,-847 57,-1196 -56,-790 -134,-1294 -378,-1850 -209,-480 -540,-737 -839,-661z"/>
  <g clip-path="url(#id0)">
   <g id="_304777528">
   </g>
   <g clip-path="url(#id1)">
    <image transform="matrix(0.0407815 8.79719 -1.48338 0.041492 28398.1 -24991.8)" x="0" y="0" width="22084" height="20779" xlink:href="logo_Images\logo_ImgID1.png"/>
   </g>
   <g clip-path="url(#id2)">
   </g>
  </g>
  <path fill="none" d="M17675 14403c-31,104 -66,207 -109,314 -197,487 -368,796 -650,1032 -296,246 -637,243 -930,-3 -1012,-851 -1377,-3774 -774,-5919 41,-145 79,-248 121,-371 368,-1069 1153,-1635 1782,-845 145,183 365,546 459,855 24,79 38,100 62,171 43,131 90,307 133,493l559 -468 547 -458c-38,-204 -79,-397 -123,-574 -269,-1081 -632,-2020 -1110,-2578 -972,-1135 -2038,-882 -2878,790l-214 468c-43,93 -23,74 -67,181 -177,424 -315,1023 -435,1560 -122,547 -212,1327 -257,2024 -105,1608 59,3169 326,4354 33,146 59,275 98,404 72,242 209,715 293,917 24,58 44,111 71,172 132,305 65,188 208,456 148,278 223,435 410,680 516,677 1125,971 1789,637 832,-418 1541,-1879 1886,-3700l-409 -202 -788 -390zm-10418 2922c-343,634 -706,1102 -1092,1408 -384,307 -805,459 -1263,459 -443,0 -848,-166 -1219,-499 -369,-334 -689,-815 -960,-1445 -284,-664 -500,-1442 -648,-2328 -150,-889 -224,-1842 -224,-2863 0,-2153 292,-3881 875,-5191 583,-1310 1355,-1964 2318,-1964 351,0 698,101 1041,307 342,202 692,518 1049,946l0 3032c-373,-468 -727,-819 -1066,-1048 -337,-232 -653,-347 -948,-347 -569,0 -1013,378 -1337,1136 -322,757 -484,1798 -484,3129 0,1297 154,2328 462,3096 308,764 722,1148 1242,1148 138,0 277,-37 412,-107 137,-75 273,-179 410,-317l0 -1738 -773 0 0 -2587 2205 0 0 5773zm212 1624l0 -13804 1241 0 1803 5558 1811 -5558 1242 0 0 13804 -1383 0 0 -8543 -1670 5046 -1654 -5046 0 8543 -1390 0zm9037 -4502c-14,-101 -13,-288 2,-388 49,-29 69,-18 118,-3 -2,100 -23,149 -46,225 -23,75 -37,136 -74,166zm-277 -407c44,-10 85,-23 121,24l7 378c-44,-22 -57,-94 -82,-169 -17,-52 -56,-144 -46,-233zm496 383c8,-76 66,-302 80,-333 29,-65 140,-63 183,-13 -18,132 -199,322 -263,346zm-867 -398c56,-5 154,-39 190,40 11,24 69,272 74,332 -73,-5 -251,-230 -264,-372zm647 -845c29,-52 260,-25 300,15 0,97 -48,403 -71,448 -25,51 -77,34 -116,34 -87,1 -154,69 -113,-497zm405 497c-6,-122 42,-392 62,-486 58,-22 272,-42 308,26 22,55 -18,174 -31,229 -71,284 -87,286 -339,231zm-625 -8c-72,0 -146,43 -180,-93 -25,-103 -55,-296 -48,-406 59,-52 225,-43 295,-1 12,86 11,228 10,340 -2,165 -15,159 -77,160zm-617 -60c-15,-30 -96,-294 -97,-400 0,-47 1,-32 6,-56 33,-22 252,-31 291,-6 45,29 85,423 76,492 -44,46 -242,38 -276,-30zm833 -1069c0,-316 3,-279 137,-269 77,6 169,-24 238,30 16,142 3,389 -28,487l-210 17c-119,0 -138,50 -137,-240l0 -25zm852 249c-33,47 -226,26 -282,24 -77,-4 -66,-33 -56,-217 6,-105 7,-201 21,-293 55,-25 304,-29 349,6 28,52 8,408 -32,480zm-1654 -10c-142,0 -229,96 -234,-389 -1,-149 16,-148 72,-146 296,10 297,-63 307,214 5,105 12,192 4,311l-149 10zm384 -521c77,1 210,-10 275,28 11,125 17,353 -2,477 -43,60 -298,41 -344,-3 -16,-59 -28,-267 -30,-347 -4,-188 29,-156 101,-155zm420 -460c-27,-497 47,-402 196,-396 63,3 147,-33 169,78 16,88 20,336 11,436 -47,23 -332,18 -362,-17l-14 -101zm-511 93c-20,-121 3,-391 22,-484 65,-36 294,-50 342,18 23,86 21,363 -1,471 -43,43 -321,38 -363,-5zm1034 -137c-4,-106 -12,-216 -5,-329 66,-23 279,-23 341,10 20,75 64,385 27,474 -28,64 -232,28 -288,25 -69,-3 -67,-9 -75,-180zm-1556 115c-2,-116 3,-228 13,-330 15,-148 19,-159 84,-161 65,-2 235,-13 284,31 14,95 -8,404 -20,488 -67,37 -311,34 -361,-28zm586 -846c-3,-122 21,-232 39,-337 32,-190 36,-173 211,-156 43,4 53,-6 62,76 0,4 16,343 -17,413 -31,62 -248,36 -295,4zm457 13c-5,-62 -13,-377 -2,-445 16,-98 119,-57 158,-57 87,1 82,4 111,169 19,110 46,238 33,333 -58,57 -234,30 -300,0zm689 -451c24,42 101,341 99,461 -42,23 -260,32 -299,6 -52,-35 -86,-457 -86,-482 47,-46 248,-48 286,15zm-1310 442c-59,21 -141,8 -203,5 -61,-2 -143,45 -107,-139 89,-451 141,-406 376,-351 4,114 -43,406 -66,485zm332 -849c2,-142 94,-411 143,-447 4,143 12,307 -6,454l-137 -7zm421 7c-21,17 -119,61 -134,-56 -12,-95 -2,-312 7,-388 40,26 137,294 127,444zm-782 -24c18,-155 222,-393 274,-381 0,68 -57,293 -77,349 -29,80 -146,84 -197,32zm1159 32l-101 11c-95,0 -91,-31 -133,-190 -18,-72 -94,-271 -19,-230 36,20 116,125 145,168 55,83 102,131 108,241zm-693 -880c-587,148 -1075,1452 -1006,3056 27,604 108,1040 244,1489 44,145 91,236 138,354 188,471 546,745 843,667 325,-86 597,-526 737,-973 81,-261 152,-513 204,-886 50,-355 82,-847 57,-1196 -56,-790 -134,-1294 -378,-1850 -209,-480 -540,-737 -839,-661z"/>
 </g>
</svg>
