<?xml version="1.0" encoding="UTF-8"?>
<!DOCTYPE svg PUBLIC "-//W3C//DTD SVG 1.1//EN" "http://www.w3.org/Graphics/SVG/1.1/DTD/svg11.dtd">
<!-- Creator: CorelDRAW X7 -->
<svg xmlns="http://www.w3.org/2000/svg" xml:space="preserve" width="177.111mm" height="102.359mm" version="1.1" shape-rendering="geometricPrecision" text-rendering="geometricPrecision" image-rendering="optimizeQuality" fill-rule="evenodd" clip-rule="evenodd"
viewBox="0 0 17725 10244"
 xmlns:xlink="http://www.w3.org/1999/xlink">
 <defs>
   <clipPath id="id0" clip-rule="nonzero">
    <path d="M1126 10l15473 0c307,0 586,178 788,465 202,287 328,682 328,1118l0 7058c0,435 -126,831 -328,1118 -202,287 -481,465 -788,465l-15473 0c-307,0 -586,-178 -788,-465 -202,-287 -328,-683 -328,-1118l0 -7058c0,-436 126,-831 328,-1118 202,-287 481,-465 788,-465zm15473 299l-15473 0c-249,0 -475,144 -639,377 -165,233 -266,554 -266,907l0 7058c0,353 101,674 266,907 164,232 390,377 639,377l15473 0c248,0 475,-145 639,-377 164,-233 266,-554 266,-907l0 -7058c0,-353 -102,-674 -266,-907 -164,-233 -391,-377 -639,-377z"/>
   </clipPath>
    <clipPath id="id1">
     <path d="M1126 10l15473 0c307,0 586,178 788,465 202,287 328,682 328,1118l0 7058c0,435 -126,831 -328,1118 -202,287 -481,465 -788,465l-15473 0c-307,0 -586,-178 -788,-465 -202,-287 -328,-683 -328,-1118l0 -7058c0,-436 126,-831 328,-1118 202,-287 481,-465 788,-465zm15473 299l-15473 0c-249,0 -475,144 -639,377 -165,233 -266,554 -266,907l0 7058c0,353 101,674 266,907 164,232 390,377 639,377l15473 0c248,0 475,-145 639,-377 164,-233 266,-554 266,-907l0 -7058c0,-353 -102,-674 -266,-907 -164,-233 -391,-377 -639,-377z"/>
    </clipPath>
    <clipPath id="id2">
     <path d="M1126 10l15473 0c307,0 586,178 788,465 202,287 328,682 328,1118l0 7058c0,435 -126,831 -328,1118 -202,287 -481,465 -788,465l-15473 0c-307,0 -586,-178 -788,-465 -202,-287 -328,-683 -328,-1118l0 -7058c0,-436 126,-831 328,-1118 202,-287 481,-465 788,-465zm15473 299l-15473 0c-249,0 -475,144 -639,377 -165,233 -266,554 -266,907l0 7058c0,353 101,674 266,907 164,232 390,377 639,377l15473 0c248,0 475,-145 639,-377 164,-233 266,-554 266,-907l0 -7058c0,-353 -102,-674 -266,-907 -164,-233 -391,-377 -639,-377z"/>
    </clipPath>
   <clipPath id="id3" clip-rule="nonzero">
    <path d="M6171 8485l0 -7261 1111 0 1614 2923 1622 -2923 1111 0 0 7261 -1238 0 0 -4494 -1495 2654 -1480 -2654 0 4494 -1245 0z"/>
   </clipPath>
    <clipPath id="id4">
     <path d="M6171 8485l0 -7261 1111 0 1614 2923 1622 -2923 1111 0 0 7261 -1238 0 0 -4494 -1495 2654 -1480 -2654 0 4494 -1245 0z"/>
    </clipPath>
    <clipPath id="id5">
     <path d="M6171 8485l0 -7261 1111 0 1614 2923 1622 -2923 1111 0 0 7261 -1238 0 0 -4494 -1495 2654 -1480 -2654 0 4494 -1245 0z"/>
    </clipPath>
   <clipPath id="id6">
    <path d="M16883 5597c-58,-51 -382,-26 -483,-25 -168,0 -338,-8 -506,-9 -132,-1 -96,14 -184,272 -72,211 -126,374 -256,558 -186,266 -347,435 -615,564 -279,135 -602,133 -879,-1 -958,-465 -1303,-2063 -733,-3234 39,-79 75,-136 115,-203 348,-584 1091,-893 1686,-462 137,100 346,299 434,467 23,44 37,55 59,94 83,145 181,390 231,580 55,212 -8,195 380,193 167,-2 332,8 497,6 295,-3 297,76 238,-289 -63,-381 -164,-750 -290,-1041 -255,-590 -598,-1103 -1050,-1408 -920,-620 -1928,-482 -2724,432l-202 255c-41,51 -22,41 -64,99 -167,232 -297,559 -411,853 -115,298 -201,725 -243,1105 -100,879 56,1732 309,2380 31,79 55,150 92,220 68,132 197,391 277,501 22,32 42,61 67,94 125,167 62,103 197,250 140,151 211,237 388,371 489,370 1065,530 1693,348 879,-255 1614,-1221 1885,-2378 26,-110 108,-482 92,-592z"/>
   </clipPath>
    <clipPath id="id7">
     <path d="M16883 5597c-58,-51 -382,-26 -483,-25 -168,0 -338,-8 -506,-9 -132,-1 -96,14 -184,272 -72,211 -126,374 -256,558 -186,266 -347,435 -615,564 -279,135 -602,133 -879,-1 -958,-465 -1303,-2063 -733,-3234 39,-79 75,-136 115,-203 348,-584 1091,-893 1686,-462 137,100 346,299 434,467 23,44 37,55 59,94 83,145 181,390 231,580 55,212 -8,195 380,193 167,-2 332,8 497,6 295,-3 297,76 238,-289 -63,-381 -164,-750 -290,-1041 -255,-590 -598,-1103 -1050,-1408 -920,-620 -1928,-482 -2724,432l-202 255c-41,51 -22,41 -64,99 -167,232 -297,559 -411,853 -115,298 -201,725 -243,1105 -100,879 56,1732 309,2380 31,79 55,150 92,220 68,132 197,391 277,501 22,32 42,61 67,94 125,167 62,103 197,250 140,151 211,237 388,371 489,370 1065,530 1693,348 879,-255 1614,-1221 1885,-2378 26,-110 108,-482 92,-592z"/>
    </clipPath>
    <clipPath id="id8">
     <path d="M16883 5597c-58,-51 -382,-26 -483,-25 -168,0 -338,-8 -506,-9 -132,-1 -96,14 -184,272 -72,211 -126,374 -256,558 -186,266 -347,435 -615,564 -279,135 -602,133 -879,-1 -958,-465 -1303,-2063 -733,-3234 39,-79 75,-136 115,-203 348,-584 1091,-893 1686,-462 137,100 346,299 434,467 23,44 37,55 59,94 83,145 181,390 231,580 55,212 -8,195 380,193 167,-2 332,8 497,6 295,-3 297,76 238,-289 -63,-381 -164,-750 -290,-1041 -255,-590 -598,-1103 -1050,-1408 -920,-620 -1928,-482 -2724,432l-202 255c-41,51 -22,41 -64,99 -167,232 -297,559 -411,853 -115,298 -201,725 -243,1105 -100,879 56,1732 309,2380 31,79 55,150 92,220 68,132 197,391 277,501 22,32 42,61 67,94 125,167 62,103 197,250 140,151 211,237 388,371 489,370 1065,530 1693,348 879,-255 1614,-1221 1885,-2378 26,-110 108,-482 92,-592z"/>
    </clipPath>
   <clipPath id="id9">
    <path d="M14442 6246c-14,-55 -13,-157 1,-212 47,-16 65,-10 112,-2 -2,55 -22,82 -44,123 -22,41 -34,74 -69,91zm-262 -222c41,-6 80,-13 114,13l6 206c-41,-12 -53,-51 -77,-92 -16,-28 -54,-79 -43,-127zm468 209c8,-42 63,-165 76,-182 28,-36 132,-35 173,-7 -16,72 -188,176 -249,189zm-820 -218c53,-2 146,-21 180,22 10,13 65,149 70,182 -69,-3 -238,-126 -250,-204zm612 -461c28,-29 246,-14 285,8 0,53 -46,220 -68,245 -24,27 -73,18 -110,18 -82,1 -146,38 -107,-271zm384 271c-6,-66 39,-214 58,-265 55,-12 258,-23 291,14 22,30 -16,95 -29,125 -67,155 -82,156 -320,126zm-592 -4c-68,0 -138,23 -170,-51 -24,-56 -52,-162 -45,-222 55,-28 213,-24 278,0 12,47 11,124 10,186 -2,90 -14,87 -73,87zm-584 -33c-14,-17 -91,-161 -91,-219 0,-25 0,-17 5,-30 31,-12 239,-17 276,-3 42,16 80,231 72,268 -42,26 -230,21 -262,-16zm788 -584c1,-173 4,-153 130,-147 73,3 160,-13 226,16 14,78 2,213 -27,267l-198 9c-114,0 -131,27 -131,-131l0 -14zm807 136c-32,25 -214,14 -267,13 -73,-2 -63,-18 -53,-118 5,-58 6,-111 20,-161 52,-13 288,-15 330,4 27,28 7,223 -30,262zm-1565 -5c-134,0 -217,52 -222,-213 -1,-82 15,-81 68,-80 280,6 281,-34 291,117 4,57 11,105 4,170l-141 6zm363 -285c73,0 198,-5 260,15 11,69 16,193 -2,261 -40,33 -281,22 -325,-2 -15,-32 -26,-146 -28,-189 -5,-103 27,-86 95,-85zm398 -252c-26,-271 44,-219 184,-216 61,2 140,-18 160,43 16,48 20,183 12,238 -45,13 -315,10 -343,-9l-13 -56zm-484 51c-19,-66 3,-213 21,-264 61,-20 278,-27 323,9 22,48 20,199 0,258 -42,24 -304,21 -344,-3zm978 -74c-4,-58 -11,-118 -5,-180 63,-13 264,-13 323,5 19,41 61,211 26,259 -26,35 -220,15 -272,14 -66,-2 -65,-5 -72,-98zm-1472 62c-2,-63 3,-124 12,-180 14,-81 18,-87 80,-88 61,-1 223,-7 268,17 14,52 -7,221 -18,267 -64,20 -295,18 -342,-16zm555 -462c-4,-67 19,-127 36,-184 30,-104 34,-95 200,-86 41,3 50,-2 59,42 0,3 15,187 -17,226 -29,34 -234,20 -278,2zm432 7c-5,-34 -13,-206 -2,-243 15,-54 113,-31 149,-31 83,1 78,2 106,92 18,60 43,130 30,182 -54,32 -220,16 -283,0zm652 -246c23,23 96,186 94,252 -40,12 -246,17 -283,3 -50,-19 -82,-250 -82,-263 44,-25 235,-27 271,8zm-1240 241c-56,12 -133,4 -192,3 -58,-1 -135,24 -101,-76 84,-246 134,-222 356,-192 3,63 -41,222 -63,265zm314 -463c3,-78 89,-225 136,-245 3,78 11,168 -6,248l-130 -3zm399 3c-21,10 -112,34 -127,-30 -11,-52 -2,-171 6,-212 39,14 131,160 121,242zm-741 -13c18,-85 210,-215 260,-208 0,37 -54,160 -73,191 -28,43 -138,45 -187,17zm1097 18l-95 5c-90,0 -86,-16 -125,-103 -18,-39 -90,-149 -19,-126 35,11 110,68 138,92 52,45 96,72 101,132zm-655 -481c-556,81 -1018,793 -952,1670 25,329 102,568 231,813 41,79 86,129 130,194 178,257 517,406 798,364 308,-47 565,-288 697,-532 78,-142 144,-280 193,-484 48,-194 78,-463 55,-653 -53,-432 -128,-707 -358,-1011 -199,-262 -511,-403 -794,-361z"/>
   </clipPath>
    <clipPath id="id10">
     <path d="M14442 6246c-14,-55 -13,-157 1,-212 47,-16 65,-10 112,-2 -2,55 -22,82 -44,123 -22,41 -34,74 -69,91zm-262 -222c41,-6 80,-13 114,13l6 206c-41,-12 -53,-51 -77,-92 -16,-28 -54,-79 -43,-127zm468 209c8,-42 63,-165 76,-182 28,-36 132,-35 173,-7 -16,72 -188,176 -249,189zm-820 -218c53,-2 146,-21 180,22 10,13 65,149 70,182 -69,-3 -238,-126 -250,-204zm612 -461c28,-29 246,-14 285,8 0,53 -46,220 -68,245 -24,27 -73,18 -110,18 -82,1 -146,38 -107,-271zm384 271c-6,-66 39,-214 58,-265 55,-12 258,-23 291,14 22,30 -16,95 -29,125 -67,155 -82,156 -320,126zm-592 -4c-68,0 -138,23 -170,-51 -24,-56 -52,-162 -45,-222 55,-28 213,-24 278,0 12,47 11,124 10,186 -2,90 -14,87 -73,87zm-584 -33c-14,-17 -91,-161 -91,-219 0,-25 0,-17 5,-30 31,-12 239,-17 276,-3 42,16 80,231 72,268 -42,26 -230,21 -262,-16zm788 -584c1,-173 4,-153 130,-147 73,3 160,-13 226,16 14,78 2,213 -27,267l-198 9c-114,0 -131,27 -131,-131l0 -14zm807 136c-32,25 -214,14 -267,13 -73,-2 -63,-18 -53,-118 5,-58 6,-111 20,-161 52,-13 288,-15 330,4 27,28 7,223 -30,262zm-1565 -5c-134,0 -217,52 -222,-213 -1,-82 15,-81 68,-80 280,6 281,-34 291,117 4,57 11,105 4,170l-141 6zm363 -285c73,0 198,-5 260,15 11,69 16,193 -2,261 -40,33 -281,22 -325,-2 -15,-32 -26,-146 -28,-189 -5,-103 27,-86 95,-85zm398 -252c-26,-271 44,-219 184,-216 61,2 140,-18 160,43 16,48 20,183 12,238 -45,13 -315,10 -343,-9l-13 -56zm-484 51c-19,-66 3,-213 21,-264 61,-20 278,-27 323,9 22,48 20,199 0,258 -42,24 -304,21 -344,-3zm978 -74c-4,-58 -11,-118 -5,-180 63,-13 264,-13 323,5 19,41 61,211 26,259 -26,35 -220,15 -272,14 -66,-2 -65,-5 -72,-98zm-1472 62c-2,-63 3,-124 12,-180 14,-81 18,-87 80,-88 61,-1 223,-7 268,17 14,52 -7,221 -18,267 -64,20 -295,18 -342,-16zm555 -462c-4,-67 19,-127 36,-184 30,-104 34,-95 200,-86 41,3 50,-2 59,42 0,3 15,187 -17,226 -29,34 -234,20 -278,2zm432 7c-5,-34 -13,-206 -2,-243 15,-54 113,-31 149,-31 83,1 78,2 106,92 18,60 43,130 30,182 -54,32 -220,16 -283,0zm652 -246c23,23 96,186 94,252 -40,12 -246,17 -283,3 -50,-19 -82,-250 -82,-263 44,-25 235,-27 271,8zm-1240 241c-56,12 -133,4 -192,3 -58,-1 -135,24 -101,-76 84,-246 134,-222 356,-192 3,63 -41,222 -63,265zm314 -463c3,-78 89,-225 136,-245 3,78 11,168 -6,248l-130 -3zm399 3c-21,10 -112,34 -127,-30 -11,-52 -2,-171 6,-212 39,14 131,160 121,242zm-741 -13c18,-85 210,-215 260,-208 0,37 -54,160 -73,191 -28,43 -138,45 -187,17zm1097 18l-95 5c-90,0 -86,-16 -125,-103 -18,-39 -90,-149 -19,-126 35,11 110,68 138,92 52,45 96,72 101,132zm-655 -481c-556,81 -1018,793 -952,1670 25,329 102,568 231,813 41,79 86,129 130,194 178,257 517,406 798,364 308,-47 565,-288 697,-532 78,-142 144,-280 193,-484 48,-194 78,-463 55,-653 -53,-432 -128,-707 -358,-1011 -199,-262 -511,-403 -794,-361z"/>
    </clipPath>
    <clipPath id="id11">
     <path d="M14442 6246c-14,-55 -13,-157 1,-212 47,-16 65,-10 112,-2 -2,55 -22,82 -44,123 -22,41 -34,74 -69,91zm-262 -222c41,-6 80,-13 114,13l6 206c-41,-12 -53,-51 -77,-92 -16,-28 -54,-79 -43,-127zm468 209c8,-42 63,-165 76,-182 28,-36 132,-35 173,-7 -16,72 -188,176 -249,189zm-820 -218c53,-2 146,-21 180,22 10,13 65,149 70,182 -69,-3 -238,-126 -250,-204zm612 -461c28,-29 246,-14 285,8 0,53 -46,220 -68,245 -24,27 -73,18 -110,18 -82,1 -146,38 -107,-271zm384 271c-6,-66 39,-214 58,-265 55,-12 258,-23 291,14 22,30 -16,95 -29,125 -67,155 -82,156 -320,126zm-592 -4c-68,0 -138,23 -170,-51 -24,-56 -52,-162 -45,-222 55,-28 213,-24 278,0 12,47 11,124 10,186 -2,90 -14,87 -73,87zm-584 -33c-14,-17 -91,-161 -91,-219 0,-25 0,-17 5,-30 31,-12 239,-17 276,-3 42,16 80,231 72,268 -42,26 -230,21 -262,-16zm788 -584c1,-173 4,-153 130,-147 73,3 160,-13 226,16 14,78 2,213 -27,267l-198 9c-114,0 -131,27 -131,-131l0 -14zm807 136c-32,25 -214,14 -267,13 -73,-2 -63,-18 -53,-118 5,-58 6,-111 20,-161 52,-13 288,-15 330,4 27,28 7,223 -30,262zm-1565 -5c-134,0 -217,52 -222,-213 -1,-82 15,-81 68,-80 280,6 281,-34 291,117 4,57 11,105 4,170l-141 6zm363 -285c73,0 198,-5 260,15 11,69 16,193 -2,261 -40,33 -281,22 -325,-2 -15,-32 -26,-146 -28,-189 -5,-103 27,-86 95,-85zm398 -252c-26,-271 44,-219 184,-216 61,2 140,-18 160,43 16,48 20,183 12,238 -45,13 -315,10 -343,-9l-13 -56zm-484 51c-19,-66 3,-213 21,-264 61,-20 278,-27 323,9 22,48 20,199 0,258 -42,24 -304,21 -344,-3zm978 -74c-4,-58 -11,-118 -5,-180 63,-13 264,-13 323,5 19,41 61,211 26,259 -26,35 -220,15 -272,14 -66,-2 -65,-5 -72,-98zm-1472 62c-2,-63 3,-124 12,-180 14,-81 18,-87 80,-88 61,-1 223,-7 268,17 14,52 -7,221 -18,267 -64,20 -295,18 -342,-16zm555 -462c-4,-67 19,-127 36,-184 30,-104 34,-95 200,-86 41,3 50,-2 59,42 0,3 15,187 -17,226 -29,34 -234,20 -278,2zm432 7c-5,-34 -13,-206 -2,-243 15,-54 113,-31 149,-31 83,1 78,2 106,92 18,60 43,130 30,182 -54,32 -220,16 -283,0zm652 -246c23,23 96,186 94,252 -40,12 -246,17 -283,3 -50,-19 -82,-250 -82,-263 44,-25 235,-27 271,8zm-1240 241c-56,12 -133,4 -192,3 -58,-1 -135,24 -101,-76 84,-246 134,-222 356,-192 3,63 -41,222 -63,265zm314 -463c3,-78 89,-225 136,-245 3,78 11,168 -6,248l-130 -3zm399 3c-21,10 -112,34 -127,-30 -11,-52 -2,-171 6,-212 39,14 131,160 121,242zm-741 -13c18,-85 210,-215 260,-208 0,37 -54,160 -73,191 -28,43 -138,45 -187,17zm1097 18l-95 5c-90,0 -86,-16 -125,-103 -18,-39 -90,-149 -19,-126 35,11 110,68 138,92 52,45 96,72 101,132zm-655 -481c-556,81 -1018,793 -952,1670 25,329 102,568 231,813 41,79 86,129 130,194 178,257 517,406 798,364 308,-47 565,-288 697,-532 78,-142 144,-280 193,-484 48,-194 78,-463 55,-653 -53,-432 -128,-707 -358,-1011 -199,-262 -511,-403 -794,-361z"/>
    </clipPath>
   <clipPath id="id12" clip-rule="nonzero">
    <path d="M5623 7604c-312,333 -643,579 -994,740 -350,162 -734,241 -1151,241 -403,0 -773,-87 -1110,-262 -336,-175 -629,-429 -875,-760 -258,-349 -456,-758 -591,-1224 -136,-468 -203,-970 -203,-1506 0,-1133 266,-2042 797,-2731 531,-689 1234,-1033 2111,-1033 320,0 636,53 948,162 312,106 631,272 956,497l0 1595c-340,-246 -662,-431 -971,-551 -307,-122 -595,-182 -863,-182 -519,0 -923,198 -1218,597 -294,398 -441,946 -441,1646 0,682 140,1224 421,1628 280,402 657,604 1130,604 127,0 253,-19 376,-57 125,-39 249,-94 374,-166l0 -914 -705 0 0 -1361 2009 0 0 3037z"/>
   </clipPath>
    <clipPath id="id13">
     <path d="M5623 7604c-312,333 -643,579 -994,740 -350,162 -734,241 -1151,241 -403,0 -773,-87 -1110,-262 -336,-175 -629,-429 -875,-760 -258,-349 -456,-758 -591,-1224 -136,-468 -203,-970 -203,-1506 0,-1133 266,-2042 797,-2731 531,-689 1234,-1033 2111,-1033 320,0 636,53 948,162 312,106 631,272 956,497l0 1595c-340,-246 -662,-431 -971,-551 -307,-122 -595,-182 -863,-182 -519,0 -923,198 -1218,597 -294,398 -441,946 -441,1646 0,682 140,1224 421,1628 280,402 657,604 1130,604 127,0 253,-19 376,-57 125,-39 249,-94 374,-166l0 -914 -705 0 0 -1361 2009 0 0 3037z"/>
    </clipPath>
    <clipPath id="id14">
     <path d="M5623 7604c-312,333 -643,579 -994,740 -350,162 -734,241 -1151,241 -403,0 -773,-87 -1110,-262 -336,-175 -629,-429 -875,-760 -258,-349 -456,-758 -591,-1224 -136,-468 -203,-970 -203,-1506 0,-1133 266,-2042 797,-2731 531,-689 1234,-1033 2111,-1033 320,0 636,53 948,162 312,106 631,272 956,497l0 1595c-340,-246 -662,-431 -971,-551 -307,-122 -595,-182 -863,-182 -519,0 -923,198 -1218,597 -294,398 -441,946 -441,1646 0,682 140,1224 421,1628 280,402 657,604 1130,604 127,0 253,-19 376,-57 125,-39 249,-94 374,-166l0 -914 -705 0 0 -1361 2009 0 0 3037z"/>
    </clipPath>
 </defs>
 <g id="Layer_x0020_1">
  <metadata id="CorelCorpID_0Corel-Layer"/>
  <path fill="black" fill-rule="nonzero" d="M1126 10l15473 0c307,0 586,178 788,465 202,287 328,682 328,1118l0 7058c0,435 -126,831 -328,1118 -202,287 -481,465 -788,465l-15473 0c-307,0 -586,-178 -788,-465 -202,-287 -328,-683 -328,-1118l0 -7058c0,-436 126,-831 328,-1118 202,-287 481,-465 788,-465zm15473 299l-15473 0c-249,0 -475,144 -639,377 -165,233 -266,554 -266,907l0 7058c0,353 101,674 266,907 164,232 390,377 639,377l15473 0c248,0 475,-145 639,-377 164,-233 266,-554 266,-907l0 -7058c0,-353 -102,-674 -266,-907 -164,-233 -391,-377 -639,-377z"/>
  <g clip-path="url(#id0)">
   <g id="_434879352">
   </g>
   <g clip-path="url(#id1)">
    <image x="-7260" y="-7018" width="31001" height="41371" xlink:href="logo-two_Images\logo-two_ImgID1.png"/>
   </g>
   <g clip-path="url(#id2)">
   </g>
  </g>
  <path fill="none" fill-rule="nonzero" d="M1126 10l15473 0c307,0 586,178 788,465 202,287 328,682 328,1118l0 7058c0,435 -126,831 -328,1118 -202,287 -481,465 -788,465l-15473 0c-307,0 -586,-178 -788,-465 -202,-287 -328,-683 -328,-1118l0 -7058c0,-436 126,-831 328,-1118 202,-287 481,-465 788,-465zm15473 299l-15473 0c-249,0 -475,144 -639,377 -165,233 -266,554 -266,907l0 7058c0,353 101,674 266,907 164,232 390,377 639,377l15473 0c248,0 475,-145 639,-377 164,-233 266,-554 266,-907l0 -7058c0,-353 -102,-674 -266,-907 -164,-233 -391,-377 -639,-377z"/>
  <polygon fill="gold" fill-rule="nonzero" points="6171,8485 6171,1224 7282,1224 8896,4147 10518,1224 11629,1224 11629,8485 10391,8485 10391,3991 8896,6645 7416,3991 7416,8485 "/>
  <g clip-path="url(#id3)">
   <g id="_434881152">
   </g>
   <g clip-path="url(#id4)">
    <image x="-4449" y="-22756" width="30462" height="41371" xlink:href="logo-two_Images\logo-two_ImgID2.png"/>
   </g>
   <g clip-path="url(#id5)">
   </g>
  </g>
  <path fill="gold" d="M16883 5597c-58,-51 -382,-26 -483,-25 -168,0 -338,-8 -506,-9 -132,-1 -96,14 -184,272 -72,211 -126,374 -256,558 -186,266 -347,435 -615,564 -279,135 -602,133 -879,-1 -958,-465 -1303,-2063 -733,-3234 39,-79 75,-136 115,-203 348,-584 1091,-893 1686,-462 137,100 346,299 434,467 23,44 37,55 59,94 83,145 181,390 231,580 55,212 -8,195 380,193 167,-2 332,8 497,6 295,-3 297,76 238,-289 -63,-381 -164,-750 -290,-1041 -255,-590 -598,-1103 -1050,-1408 -920,-620 -1928,-482 -2724,432l-202 255c-41,51 -22,41 -64,99 -167,232 -297,559 -411,853 -115,298 -201,725 -243,1105 -100,879 56,1732 309,2380 31,79 55,150 92,220 68,132 197,391 277,501 22,32 42,61 67,94 125,167 62,103 197,250 140,151 211,237 388,371 489,370 1065,530 1693,348 879,-255 1614,-1221 1885,-2378 26,-110 108,-482 92,-592z"/>
  <g clip-path="url(#id6)">
   <g id="_434881584">
   </g>
   <g clip-path="url(#id7)">
    <image x="-4665" y="-22517" width="31001" height="41371" xlink:href="logo-two_Images\logo-two_ImgID3.png"/>
   </g>
   <g clip-path="url(#id8)">
   </g>
  </g>
  <path fill="none" d="M16883 5597c-58,-51 -382,-26 -483,-25 -168,0 -338,-8 -506,-9 -132,-1 -96,14 -184,272 -72,211 -126,374 -256,558 -186,266 -347,435 -615,564 -279,135 -602,133 -879,-1 -958,-465 -1303,-2063 -733,-3234 39,-79 75,-136 115,-203 348,-584 1091,-893 1686,-462 137,100 346,299 434,467 23,44 37,55 59,94 83,145 181,390 231,580 55,212 -8,195 380,193 167,-2 332,8 497,6 295,-3 297,76 238,-289 -63,-381 -164,-750 -290,-1041 -255,-590 -598,-1103 -1050,-1408 -920,-620 -1928,-482 -2724,432l-202 255c-41,51 -22,41 -64,99 -167,232 -297,559 -411,853 -115,298 -201,725 -243,1105 -100,879 56,1732 309,2380 31,79 55,150 92,220 68,132 197,391 277,501 22,32 42,61 67,94 125,167 62,103 197,250 140,151 211,237 388,371 489,370 1065,530 1693,348 879,-255 1614,-1221 1885,-2378 26,-110 108,-482 92,-592z"/>
  <path fill="gold" d="M14442 6246c-14,-55 -13,-157 1,-212 47,-16 65,-10 112,-2 -2,55 -22,82 -44,123 -22,41 -34,74 -69,91zm-262 -222c41,-6 80,-13 114,13l6 206c-41,-12 -53,-51 -77,-92 -16,-28 -54,-79 -43,-127zm468 209c8,-42 63,-165 76,-182 28,-36 132,-35 173,-7 -16,72 -188,176 -249,189zm-820 -218c53,-2 146,-21 180,22 10,13 65,149 70,182 -69,-3 -238,-126 -250,-204zm612 -461c28,-29 246,-14 285,8 0,53 -46,220 -68,245 -24,27 -73,18 -110,18 -82,1 -146,38 -107,-271zm384 271c-6,-66 39,-214 58,-265 55,-12 258,-23 291,14 22,30 -16,95 -29,125 -67,155 -82,156 -320,126zm-592 -4c-68,0 -138,23 -170,-51 -24,-56 -52,-162 -45,-222 55,-28 213,-24 278,0 12,47 11,124 10,186 -2,90 -14,87 -73,87zm-584 -33c-14,-17 -91,-161 -91,-219 0,-25 0,-17 5,-30 31,-12 239,-17 276,-3 42,16 80,231 72,268 -42,26 -230,21 -262,-16zm788 -584c1,-173 4,-153 130,-147 73,3 160,-13 226,16 14,78 2,213 -27,267l-198 9c-114,0 -131,27 -131,-131l0 -14zm807 136c-32,25 -214,14 -267,13 -73,-2 -63,-18 -53,-118 5,-58 6,-111 20,-161 52,-13 288,-15 330,4 27,28 7,223 -30,262zm-1565 -5c-134,0 -217,52 -222,-213 -1,-82 15,-81 68,-80 280,6 281,-34 291,117 4,57 11,105 4,170l-141 6zm363 -285c73,0 198,-5 260,15 11,69 16,193 -2,261 -40,33 -281,22 -325,-2 -15,-32 -26,-146 -28,-189 -5,-103 27,-86 95,-85zm398 -252c-26,-271 44,-219 184,-216 61,2 140,-18 160,43 16,48 20,183 12,238 -45,13 -315,10 -343,-9l-13 -56zm-484 51c-19,-66 3,-213 21,-264 61,-20 278,-27 323,9 22,48 20,199 0,258 -42,24 -304,21 -344,-3zm978 -74c-4,-58 -11,-118 -5,-180 63,-13 264,-13 323,5 19,41 61,211 26,259 -26,35 -220,15 -272,14 -66,-2 -65,-5 -72,-98zm-1472 62c-2,-63 3,-124 12,-180 14,-81 18,-87 80,-88 61,-1 223,-7 268,17 14,52 -7,221 -18,267 -64,20 -295,18 -342,-16zm555 -462c-4,-67 19,-127 36,-184 30,-104 34,-95 200,-86 41,3 50,-2 59,42 0,3 15,187 -17,226 -29,34 -234,20 -278,2zm432 7c-5,-34 -13,-206 -2,-243 15,-54 113,-31 149,-31 83,1 78,2 106,92 18,60 43,130 30,182 -54,32 -220,16 -283,0zm652 -246c23,23 96,186 94,252 -40,12 -246,17 -283,3 -50,-19 -82,-250 -82,-263 44,-25 235,-27 271,8zm-1240 241c-56,12 -133,4 -192,3 -58,-1 -135,24 -101,-76 84,-246 134,-222 356,-192 3,63 -41,222 -63,265zm314 -463c3,-78 89,-225 136,-245 3,78 11,168 -6,248l-130 -3zm399 3c-21,10 -112,34 -127,-30 -11,-52 -2,-171 6,-212 39,14 131,160 121,242zm-741 -13c18,-85 210,-215 260,-208 0,37 -54,160 -73,191 -28,43 -138,45 -187,17zm1097 18l-95 5c-90,0 -86,-16 -125,-103 -18,-39 -90,-149 -19,-126 35,11 110,68 138,92 52,45 96,72 101,132zm-655 -481c-556,81 -1018,793 -952,1670 25,329 102,568 231,813 41,79 86,129 130,194 178,257 517,406 798,364 308,-47 565,-288 697,-532 78,-142 144,-280 193,-484 48,-194 78,-463 55,-653 -53,-432 -128,-707 -358,-1011 -199,-262 -511,-403 -794,-361z"/>
  <g clip-path="url(#id9)">
   <g id="_434882160">
   </g>
   <g clip-path="url(#id10)">
    <image x="-4694" y="-22514" width="31001" height="41371" xlink:href="logo-two_Images\logo-two_ImgID4.png"/>
   </g>
   <g clip-path="url(#id11)">
   </g>
  </g>
  <path fill="none" d="M14442 6246c-14,-55 -13,-157 1,-212 47,-16 65,-10 112,-2 -2,55 -22,82 -44,123 -22,41 -34,74 -69,91zm-262 -222c41,-6 80,-13 114,13l6 206c-41,-12 -53,-51 -77,-92 -16,-28 -54,-79 -43,-127zm468 209c8,-42 63,-165 76,-182 28,-36 132,-35 173,-7 -16,72 -188,176 -249,189zm-820 -218c53,-2 146,-21 180,22 10,13 65,149 70,182 -69,-3 -238,-126 -250,-204zm612 -461c28,-29 246,-14 285,8 0,53 -46,220 -68,245 -24,27 -73,18 -110,18 -82,1 -146,38 -107,-271zm384 271c-6,-66 39,-214 58,-265 55,-12 258,-23 291,14 22,30 -16,95 -29,125 -67,155 -82,156 -320,126zm-592 -4c-68,0 -138,23 -170,-51 -24,-56 -52,-162 -45,-222 55,-28 213,-24 278,0 12,47 11,124 10,186 -2,90 -14,87 -73,87zm-584 -33c-14,-17 -91,-161 -91,-219 0,-25 0,-17 5,-30 31,-12 239,-17 276,-3 42,16 80,231 72,268 -42,26 -230,21 -262,-16zm788 -584c1,-173 4,-153 130,-147 73,3 160,-13 226,16 14,78 2,213 -27,267l-198 9c-114,0 -131,27 -131,-131l0 -14zm807 136c-32,25 -214,14 -267,13 -73,-2 -63,-18 -53,-118 5,-58 6,-111 20,-161 52,-13 288,-15 330,4 27,28 7,223 -30,262zm-1565 -5c-134,0 -217,52 -222,-213 -1,-82 15,-81 68,-80 280,6 281,-34 291,117 4,57 11,105 4,170l-141 6zm363 -285c73,0 198,-5 260,15 11,69 16,193 -2,261 -40,33 -281,22 -325,-2 -15,-32 -26,-146 -28,-189 -5,-103 27,-86 95,-85zm398 -252c-26,-271 44,-219 184,-216 61,2 140,-18 160,43 16,48 20,183 12,238 -45,13 -315,10 -343,-9l-13 -56zm-484 51c-19,-66 3,-213 21,-264 61,-20 278,-27 323,9 22,48 20,199 0,258 -42,24 -304,21 -344,-3zm978 -74c-4,-58 -11,-118 -5,-180 63,-13 264,-13 323,5 19,41 61,211 26,259 -26,35 -220,15 -272,14 -66,-2 -65,-5 -72,-98zm-1472 62c-2,-63 3,-124 12,-180 14,-81 18,-87 80,-88 61,-1 223,-7 268,17 14,52 -7,221 -18,267 -64,20 -295,18 -342,-16zm555 -462c-4,-67 19,-127 36,-184 30,-104 34,-95 200,-86 41,3 50,-2 59,42 0,3 15,187 -17,226 -29,34 -234,20 -278,2zm432 7c-5,-34 -13,-206 -2,-243 15,-54 113,-31 149,-31 83,1 78,2 106,92 18,60 43,130 30,182 -54,32 -220,16 -283,0zm652 -246c23,23 96,186 94,252 -40,12 -246,17 -283,3 -50,-19 -82,-250 -82,-263 44,-25 235,-27 271,8zm-1240 241c-56,12 -133,4 -192,3 -58,-1 -135,24 -101,-76 84,-246 134,-222 356,-192 3,63 -41,222 -63,265zm314 -463c3,-78 89,-225 136,-245 3,78 11,168 -6,248l-130 -3zm399 3c-21,10 -112,34 -127,-30 -11,-52 -2,-171 6,-212 39,14 131,160 121,242zm-741 -13c18,-85 210,-215 260,-208 0,37 -54,160 -73,191 -28,43 -138,45 -187,17zm1097 18l-95 5c-90,0 -86,-16 -125,-103 -18,-39 -90,-149 -19,-126 35,11 110,68 138,92 52,45 96,72 101,132zm-655 -481c-556,81 -1018,793 -952,1670 25,329 102,568 231,813 41,79 86,129 130,194 178,257 517,406 798,364 308,-47 565,-288 697,-532 78,-142 144,-280 193,-484 48,-194 78,-463 55,-653 -53,-432 -128,-707 -358,-1011 -199,-262 -511,-403 -794,-361z"/>
  <path fill="gold" fill-rule="nonzero" d="M5623 7604c-312,333 -643,579 -994,740 -350,162 -734,241 -1151,241 -403,0 -773,-87 -1110,-262 -336,-175 -629,-429 -875,-760 -258,-349 -456,-758 -591,-1224 -136,-468 -203,-970 -203,-1506 0,-1133 266,-2042 797,-2731 531,-689 1234,-1033 2111,-1033 320,0 636,53 948,162 312,106 631,272 956,497l0 1595c-340,-246 -662,-431 -971,-551 -307,-122 -595,-182 -863,-182 -519,0 -923,198 -1218,597 -294,398 -441,946 -441,1646 0,682 140,1224 421,1628 280,402 657,604 1130,604 127,0 253,-19 376,-57 125,-39 249,-94 374,-166l0 -914 -705 0 0 -1361 2009 0 0 3037z"/>
  <g clip-path="url(#id12)">
   <g id="_434882928">
   </g>
   <g clip-path="url(#id13)">
    <image x="-4993" y="-22782" width="31001" height="41371" xlink:href="logo-two_Images\logo-two_ImgID5.png"/>
   </g>
   <g clip-path="url(#id14)">
   </g>
  </g>
  <path fill="#FFCC29" stroke="#373435" stroke-width="20.0152" d="M1126 309l15473 0c248,0 475,144 639,377 164,233 266,554 266,907l0 7058c0,353 -102,674 -266,907 -164,232 -391,377 -639,377l-15473 0c-249,0 -475,-145 -639,-377 -165,-233 -266,-554 -266,-907l0 -7058c0,-353 101,-674 266,-907 164,-233 390,-377 639,-377zm0 -299l15473 0c307,0 586,178 788,465 202,287 328,682 328,1118l0 7058c0,435 -126,831 -328,1118 -202,287 -481,465 -788,465l-15473 0c-307,0 -586,-178 -788,-465 -202,-287 -328,-683 -328,-1118l0 -7058c0,-436 126,-831 328,-1118 202,-287 481,-465 788,-465z"/>
  <path fill="#F58634" stroke="#373435" stroke-width="20.0152" d="M1126 309l15473 0c248,0 475,144 639,377 164,233 266,554 266,907l0 7058c0,353 -102,674 -266,907 -164,232 -391,377 -639,377l-15473 0c-249,0 -475,-145 -639,-377 -165,-233 -266,-554 -266,-907l0 -7058c0,-353 101,-674 266,-907 164,-233 390,-377 639,-377zm15473 -299l-15473 0c-307,0 -586,178 -788,465 -202,287 -328,682 -328,1118l0 7058c0,435 126,831 328,1118 202,287 481,465 788,465l15473 0c307,0 586,-178 788,-465 202,-287 328,-683 328,-1118l0 -7058c0,-436 -126,-831 -328,-1118 -202,-287 -481,-465 -788,-465z"/>
  <path fill="#FFF688" stroke="#373435" stroke-width="20.0152" d="M1126 309l15473 0c248,0 475,144 639,377 164,233 266,554 266,907l0 7058c0,353 -102,674 -266,907 -164,232 -391,377 -639,377l-15473 0c-249,0 -475,-145 -639,-377 -165,-233 -266,-554 -266,-907l0 -7058c0,-353 101,-674 266,-907 164,-233 390,-377 639,-377zm0 -299l15473 0c307,0 586,178 788,465 202,287 328,682 328,1118l0 7058c0,435 -126,831 -328,1118 -202,287 -481,465 -788,465l-15473 0c-307,0 -586,-178 -788,-465 -202,-287 -328,-683 -328,-1118l0 -7058c0,-436 126,-831 328,-1118 202,-287 481,-465 788,-465z"/>
  <path fill="#FFCC29" stroke="#373435" stroke-width="20.0152" d="M1126 309l15473 0c248,0 475,144 639,377 164,233 266,554 266,907l0 7058c0,353 -102,674 -266,907 -164,232 -391,377 -639,377l-15473 0c-249,0 -475,-145 -639,-377 -165,-233 -266,-554 -266,-907l0 -7058c0,-353 101,-674 266,-907 164,-233 390,-377 639,-377zm15473 -299l-15473 0c-307,0 -586,178 -788,465 -202,287 -328,682 -328,1118l0 7058c0,435 126,831 328,1118 202,287 481,465 788,465l15473 0c307,0 586,-178 788,-465 202,-287 328,-683 328,-1118l0 -7058c0,-436 -126,-831 -328,-1118 -202,-287 -481,-465 -788,-465z"/>
 </g>
</svg>
